<svg width="30" height="30" viewBox="0 0 30 30" fill="none" xmlns="http://www.w3.org/2000/svg">
<path fill-rule="evenodd" clip-rule="evenodd" d="M22.4132 1.71819C18.9627 -0.0183926 14.9453 -0.436062 11.1354 0.453827C3.15285 2.31836 -1.62833 9.53721 0.510604 16.4957C1.19117 18.7098 2.59744 20.7544 4.45075 22.3555L4.39957 29.1476L11.4846 25.6282C13.9533 26.0686 16.5063 26.1503 18.8648 25.5994C26.8474 23.7349 31.6285 16.516 29.4896 9.55748C28.4688 6.23637 25.8637 3.45478 22.4132 1.71819ZM18.2328 23.5435C16.0557 24.052 13.7328 24.086 11.6269 23.5609L11.2155 23.4875L7.02018 25.6539L7.12347 21.5617L6.61477 21.1721C4.81008 19.7291 3.68247 17.9584 3.09912 16.0606C1.34909 10.3673 5.33342 4.35157 11.8646 2.82605C15.1302 2.06329 18.3733 2.49231 21.3151 3.8392C24.3056 5.34424 26.1719 7.62037 27.0469 10.467C28.7484 16.0022 24.9454 21.9756 18.2328 23.5435ZM22.3334 14.1105C21.922 14.0371 19.8647 13.6701 19.5019 13.7549C19.0904 13.6815 18.9089 13.7239 18.8247 14.0826C18.7405 14.4412 18.2093 15.2433 18.1251 15.602C17.9923 15.8025 17.8109 15.8449 17.448 15.9296C17.0366 15.8562 15.8508 15.7942 14.0592 15.0262C12.7276 14.4897 11.6616 13.5521 11.3829 13.2782C11.1043 13.0043 11.2371 12.8038 11.3699 12.6033C11.5027 12.4027 11.6355 12.2022 11.7683 12.0017C11.9012 11.8012 11.8526 11.643 11.9854 11.4425C12.1182 11.242 11.8881 11.1262 11.8395 10.968C11.7909 10.8099 10.5791 9.39792 10.0218 8.85007C9.69455 8.41801 9.33172 8.50275 9.15029 8.54513C8.96887 8.58751 8.7874 8.62989 8.42456 8.71464C8.24314 8.75702 7.88029 8.84177 7.61467 9.24282C7.34905 9.64387 6.68503 10.6465 7.17115 12.228C7.65727 13.8094 9.36471 14.9361 9.64336 15.2101C9.8734 15.3258 13.2527 18.0961 17.2701 18.5137C20.6946 18.9004 21.1416 18.457 21.8673 18.2875C22.593 18.118 23.8013 16.9882 23.7883 16.3132C23.9081 15.4378 23.7136 14.8052 23.5322 14.8475C23.1077 14.0992 22.7449 14.1839 22.3334 14.1105Z" fill="#25D366"/>
</svg>
