<svg width="31" height="27" viewBox="0 0 31 27" fill="none" xmlns="http://www.w3.org/2000/svg">
<path d="M15.1833 2.54816C19.2479 2.46256 19.8022 2.45088 21.4651 2.41586C22.9431 2.38474 23.6911 2.69129 24.2498 2.84067C24.9978 3.14722 25.5565 3.2966 26.1242 3.7681C26.6919 4.2396 27.0748 4.71498 27.2774 5.35532C27.4756 5.8346 27.6782 6.47493 27.8986 7.75949C27.9388 9.209 27.9477 9.53112 28.0504 13.2354C28.1531 16.9397 28.162 17.2618 28.2022 18.7113C28.2379 19.9998 27.8862 20.6518 27.7148 21.1389C27.3632 21.7909 27.1918 22.2779 26.6509 22.7728C26.11 23.2676 25.5647 23.6014 24.8301 23.778C24.2803 23.9508 23.5457 24.1274 22.0721 24.3196C20.4093 24.3546 20.0398 24.3624 15.7903 24.4519C11.5409 24.5413 11.1713 24.5491 9.5085 24.5841C8.03043 24.6153 7.28247 24.3087 6.72372 24.1593C5.97576 23.8528 5.41702 23.7034 4.84935 23.2319C4.28168 22.7604 3.89877 22.285 3.69616 21.6447C3.49801 21.1654 3.2954 20.5251 3.07493 19.2405C3.03476 17.791 3.02583 17.4689 2.92316 13.7646C2.8205 10.0603 2.81157 9.73818 2.7714 8.28867C2.73569 7.00022 3.08735 6.34821 3.25872 5.86115C3.61038 5.20914 3.78175 4.72208 4.32264 4.22724C4.86353 3.7324 5.40888 3.39861 6.14345 3.22199C6.69326 3.04926 7.42783 2.87264 8.90144 2.68045C10.5643 2.64544 11.1186 2.63376 15.1833 2.54816ZM15.1163 0.13231C10.8668 0.221804 10.4973 0.229586 8.83449 0.264605C7.17166 0.299625 6.07203 0.645085 5.15716 0.986653C4.24229 1.32822 3.33189 1.83085 2.43041 2.65558C1.52894 3.48032 1.17727 4.13233 0.649776 5.11034C0.302577 5.92341 0.144598 6.89364 1.24001e-05 8.34704C0.0401854 9.79655 0.0535764 10.2797 0.151777 13.823C0.254442 17.5273 0.263369 17.8494 0.303542 19.2989C0.343715 20.7484 0.740016 21.707 1.13185 22.5045C1.52369 23.302 2.10028 24.0956 3.0464 24.8814C3.99251 25.6672 4.74048 25.9738 5.86242 26.4336C6.79514 26.7363 7.90816 26.874 9.57546 27C11.2383 26.965 11.7926 26.9533 15.8573 26.8677C19.922 26.7821 20.4762 26.7704 22.1391 26.7354C23.8019 26.7004 24.9015 26.3549 25.8164 26.0134C26.7313 25.6718 27.6417 25.1692 28.5431 24.3444C29.4446 23.5197 29.7963 22.8677 30.3238 21.8897C30.671 21.0766 30.829 20.1064 30.9735 18.653C30.9334 17.2035 30.92 16.7203 30.8218 13.1771C30.7236 9.63381 30.7102 9.15064 30.67 7.70113C30.6298 6.25162 30.2335 5.29306 29.8417 4.49556C29.4499 3.69806 28.8733 2.90445 27.9272 2.11862C26.981 1.33279 26.2331 1.02625 25.1111 0.566422C24.1784 0.263764 23.0654 0.126053 21.3981 1.52623e-05C19.7353 0.0350345 19.3658 0.0428166 15.1163 0.13231Z" fill="#F00073"/>
<path d="M15.2948 6.57457C10.8606 6.66796 7.43501 9.80196 7.54214 13.6673C7.64927 17.5327 11.2445 20.5188 15.6787 20.4254C20.1129 20.3321 23.5385 17.1981 23.4314 13.3327C23.3243 9.46734 19.7291 6.48119 15.2948 6.57457ZM15.6118 18.0096C12.8404 18.068 10.3849 16.1859 10.3135 13.609C10.2466 11.1931 12.4057 9.05268 15.3618 8.99042C18.1332 8.93206 20.5886 10.8142 20.66 13.3911C20.727 15.8069 18.3831 17.9512 15.6118 18.0096Z" fill="#F00073"/>
<path d="M23.4644 7.85288C24.4848 7.83139 25.292 7.09289 25.2674 6.2034C25.2427 5.31391 24.3955 4.61026 23.3751 4.63175C22.3547 4.65324 21.5475 5.39173 21.5722 6.28122C21.5968 7.17071 22.444 7.87437 23.4644 7.85288Z" fill="#F00073"/>
</svg>
