<svg width="28" height="31" viewBox="0 0 28 31" fill="none" xmlns="http://www.w3.org/2000/svg">
<path fill-rule="evenodd" clip-rule="evenodd" d="M0 2.52483V27.7732C0 28.4428 0.31607 29.085 0.878679 29.5585C1.44129 30.032 2.20435 30.298 3 30.298H16V27.3229C15.2374 26.9524 14.6414 26.3804 14.3045 25.6957C13.9675 25.0111 13.9084 24.252 14.1363 23.5362C14.3642 22.8203 14.8664 22.1878 15.565 21.7367C16.2635 21.2856 17.1195 21.041 18 21.041C18.8805 21.041 19.7365 21.2856 20.435 21.7367C21.1336 22.1878 21.6358 22.8203 21.8637 23.5362C22.0916 24.252 22.0325 25.0111 21.6955 25.6957C21.3586 26.3804 20.7626 26.9524 20 27.3229V30.298H25C25.7956 30.298 26.5587 30.032 27.1213 29.5585C27.6839 29.085 28 28.4428 28 27.7732V2.52483C28 1.85521 27.6839 1.213 27.1213 0.739506C26.5587 0.266008 25.7956 0 25 0H3C2.20435 0 1.44129 0.266008 0.878679 0.739506C0.31607 1.213 0 1.85521 0 2.52483ZM18 26.0899C18.5304 26.0899 19.0391 25.9126 19.4142 25.5969C19.7893 25.2813 20 24.8531 20 24.4067C20 23.9603 19.7893 23.5322 19.4142 23.2165C19.0391 22.9008 18.5304 22.7235 18 22.7235C17.4696 22.7235 16.9609 22.9008 16.5858 23.2165C16.2107 23.5322 16 23.9603 16 24.4067C16 24.8531 16.2107 25.2813 16.5858 25.5969C16.9609 25.9126 17.4696 26.0899 18 26.0899ZM8 5.89127C8 5.66807 8.10536 5.454 8.29289 5.29617C8.48043 5.13833 8.73478 5.04966 9 5.04966H19C19.2652 5.04966 19.5196 5.13833 19.7071 5.29617C19.8946 5.454 20 5.66807 20 5.89127C20 6.11448 19.8946 6.32855 19.7071 6.48638C19.5196 6.64422 19.2652 6.73289 19 6.73289H9C8.73478 6.73289 8.48043 6.64422 8.29289 6.48638C8.10536 6.32855 8 6.11448 8 5.89127ZM5 10.0993C4.73478 10.0993 4.48043 10.188 4.29289 10.3458C4.10536 10.5037 4 10.7177 4 10.9409C4 11.1641 4.10536 11.3782 4.29289 11.536C4.48043 11.6939 4.73478 11.7825 5 11.7825H23C23.2652 11.7825 23.5196 11.6939 23.7071 11.536C23.8946 11.3782 24 11.1641 24 10.9409C24 10.7177 23.8946 10.5037 23.7071 10.3458C23.5196 10.188 23.2652 10.0993 23 10.0993H5ZM4 14.3074C4 14.0842 4.10536 13.8701 4.29289 13.7123C4.48043 13.5544 4.73478 13.4658 5 13.4658H23C23.2652 13.4658 23.5196 13.5544 23.7071 13.7123C23.8946 13.8701 24 14.0842 24 14.3074C24 14.5306 23.8946 14.7447 23.7071 14.9025C23.5196 15.0603 23.2652 15.149 23 15.149H5C4.73478 15.149 4.48043 15.0603 4.29289 14.9025C4.10536 14.7447 4 14.5306 4 14.3074ZM5 16.8322C4.73478 16.8322 4.48043 16.9209 4.29289 17.0787C4.10536 17.2365 4 17.4506 4 17.6738C4 17.897 4.10536 18.1111 4.29289 18.2689C4.48043 18.4268 4.73478 18.5154 5 18.5154H23C23.2652 18.5154 23.5196 18.4268 23.7071 18.2689C23.8946 18.1111 24 17.897 24 17.6738C24 17.4506 23.8946 17.2365 23.7071 17.0787C23.5196 16.9209 23.2652 16.8322 23 16.8322H5Z" fill="white"/>
</svg>
