<svg width="28" height="30" viewBox="0 0 28 30" fill="none" xmlns="http://www.w3.org/2000/svg">
<path d="M27.9999 2.32665C27.0877 3.16778 26.0553 3.61825 24.841 4.11125C25.8752 3.03227 26.4253 1.64768 26.3091 3.24254e-06C25.4569 1.03646 24.3025 1.72479 22.9661 2.45565C21.5135 1.53883 19.6348 1.14023 17.9963 1.52296C14.173 2.41597 12.4609 7.00293 14.572 10.6969C9.5963 11.6497 4.44632 10.131 0.150485 6.94739C-0.58745 10.26 1.46362 13.7586 4.61287 15.1166C3.70257 15.3292 2.67219 15.1512 1.6418 14.9731C2.54241 17.9031 5.38564 20.1699 8.35671 20.3133C7.50645 20.7213 6.65619 21.1292 5.68585 21.1465C7.19462 23.5157 9.97974 24.9587 12.7106 24.3208C11.0663 26.5891 8.08941 28.3311 4.8743 28.6634C8.14557 29.7835 11.6008 30.2325 14.8779 29.4671C25.9836 26.8731 29.1116 15.4655 25.9256 6.37014C26.9598 5.29116 27.6919 3.86404 27.9999 2.32665Z" fill="#1DA1F2"/>
</svg>
