<svg width="30" height="30" viewBox="0 0 30 30" fill="none" xmlns="http://www.w3.org/2000/svg">
<path d="M15.625 16.625C15.25 15.5 15.5 14.625 15.625 14.125C15.5 13.625 15.25 12.875 15.5 11.75C15.875 10.75 16.5 10.25 16.875 9.875C17 9.375 17.25 8.625 18.25 7.875C19.125 7.25 20 7.25 20.5 7.25C20.625 7.125 20.875 7 21.125 6.875V3.25C21.25 2.125 20.375 1.25 19.25 1.25H3.25C2.125 1.25 1.25 2.125 1.25 3.25V15.5C1.25 16.625 2.125 17.5 3.25 17.5H16.125C15.875 17.25 15.75 17 15.625 16.625ZM3.75 6.25V3.75L11.25 7.5L18.75 3.75V6.25L11.25 10L3.75 6.25ZM28.25 12.375C28 11.625 27.375 11.5 27 11.125C26.75 10.75 26.75 10 26.125 9.625C25.5 9.125 24.875 9.375 24.375 9.25C23.875 9.125 23.5 8.5 22.75 8.5C22 8.5 21.625 9 21.125 9.25C20.625 9.375 20 9.125 19.375 9.625C18.75 10 18.875 10.625 18.5 11.125C18.125 11.5 17.5 11.75 17.25 12.375C17 13.125 17.5 13.625 17.5 14.125C17.5 14.625 17 15.125 17.25 15.875C17.5 16.625 18.125 16.75 18.5 17.125C18.75 17.5 18.75 18.25 19.375 18.625C20 19.125 20.625 18.875 21.125 19C21.625 19.125 22 19.75 22.75 19.75C23.5 19.75 23.875 19.25 24.375 19C24.875 18.875 25.5 19.125 26.125 18.625C26.75 18.125 26.75 17.5 27 17.125C27.375 16.75 28 16.5 28.25 15.875C28.5 15.125 28 14.625 28 14.125C28 13.625 28.5 13.125 28.25 12.375ZM22.75 18C20.625 18 19 16.25 19 14.25C19 12.25 20.75 10.5 22.75 10.5C24.75 10.5 26.5 12.25 26.5 14.25C26.5 16.25 24.875 18 22.75 18ZM24.625 14.125C24.625 15.125 23.75 16 22.75 16C21.75 16 20.875 15.125 20.875 14.125C20.875 13.125 21.75 12.25 22.75 12.25C23.75 12.25 24.625 13.125 24.625 14.125ZM24.375 21.375L23.75 24.75L23 28.625L20.5 26.25L17.5 27.625L18.75 20.5C19.25 20.75 19.875 20.875 20.5 20.875C20.875 21.125 21.375 21.375 21.75 21.5C22 21.625 22.375 21.625 22.75 21.625C23.375 21.75 23.875 21.625 24.375 21.375ZM28.375 24.375L25.875 23.5L26.375 20.75L27.125 20.375L27.25 20.25L28.375 24.375Z" fill="white"/>
</svg>
