<svg width="24" height="24" viewBox="0 0 24 24" fill="none" xmlns="http://www.w3.org/2000/svg">
<path fill-rule="evenodd" clip-rule="evenodd" d="M3.80236 0C2.64864 0 1.71436 0.934286 1.71436 2.088V9.92229C1.71436 11.0777 2.64864 12.0137 3.80236 12.0137H20.1978C21.3515 12.0137 22.2858 11.0777 22.2858 9.92229V2.088C22.2858 0.934286 21.3515 0 20.1978 0H3.80236ZM8.43607 16.1846C8.43607 16.84 8.17572 17.4685 7.71229 17.9319C7.24886 18.3954 6.62032 18.6557 5.96493 18.6557C5.30954 18.6557 4.68099 18.3954 4.21757 17.9319C3.75414 17.4685 3.49378 16.84 3.49378 16.1846C3.49378 15.5292 3.75414 14.9006 4.21757 14.4372C4.68099 13.9738 5.30954 13.7134 5.96493 13.7134C6.62032 13.7134 7.24886 13.9738 7.71229 14.4372C8.17572 14.9006 8.43607 15.5292 8.43607 16.1846ZM18.0429 18.6566C18.6983 18.6566 19.3269 18.3962 19.7903 17.9328C20.2537 17.4694 20.5141 16.8408 20.5141 16.1854C20.5141 15.53 20.2537 14.9015 19.7903 14.4381C19.3269 13.9746 18.6983 13.7143 18.0429 13.7143C17.3875 13.7143 16.759 13.9746 16.2956 14.4381C15.8321 14.9015 15.5718 15.53 15.5718 16.1854C15.5718 16.8408 15.8321 17.4694 16.2956 17.9328C16.759 18.3962 17.3875 18.6566 18.0429 18.6566ZM5.96407 19.9903C5.01772 19.9904 4.10201 20.3257 3.37931 20.9367C2.65662 21.5477 2.17366 22.3949 2.01607 23.328C1.95607 23.6914 2.26121 23.9931 2.62978 23.9931H9.30007C9.66864 23.9931 9.97378 23.6914 9.91378 23.328C9.75615 22.3946 9.27293 21.5472 8.54988 20.9362C7.82684 20.3251 6.91071 19.99 5.96407 19.9903ZM14.0949 23.328C14.2523 22.3945 14.7353 21.5469 15.4582 20.9357C16.1811 20.3245 17.0971 19.9891 18.0438 19.9891C18.9905 19.9891 19.9065 20.3245 20.6294 20.9357C21.3523 21.5469 21.8353 22.3945 21.9926 23.328C22.0526 23.6914 21.7475 23.9931 21.3789 23.9931H14.7086C14.3418 23.9931 14.0349 23.6914 14.0949 23.328ZM13.9252 3.636C13.9252 4.14658 13.7224 4.63625 13.3614 4.99728C13.0003 5.35832 12.5106 5.56114 12.0001 5.56114C11.4895 5.56114 10.9998 5.35832 10.6388 4.99728C10.2778 4.63625 10.0749 4.14658 10.0749 3.636C10.0749 3.12542 10.2778 2.63575 10.6388 2.27472C10.9998 1.91368 11.4895 1.71086 12.0001 1.71086C12.5106 1.71086 13.0003 1.91368 13.3614 2.27472C13.7224 2.63575 13.9252 3.12542 13.9252 3.636ZM8.61436 9.69771C8.74957 8.89757 9.16379 8.17118 9.78356 7.64735C10.4033 7.12353 11.1886 6.83613 12.0001 6.83613C12.8116 6.83613 13.5968 7.12353 14.2166 7.64735C14.8364 8.17118 15.2506 8.89757 15.3858 9.69771C15.4372 10.0097 15.1766 10.2669 14.8612 10.2669H9.13721C8.82178 10.2669 8.56293 10.0097 8.61436 9.69771Z" fill="white"/>
</svg>
