<svg width="25" height="25" viewBox="0 0 25 25" fill="none" xmlns="http://www.w3.org/2000/svg">
<path fill-rule="evenodd" clip-rule="evenodd" d="M6.05381 1.40527C4.82086 1.40527 3.63839 1.89494 2.76639 2.7666C1.8944 3.63825 1.40428 4.82054 1.40381 6.05349V18.4535C1.40381 19.6867 1.89372 20.8695 2.76576 21.7415C3.63781 22.6136 4.82055 23.1035 6.05381 23.1035H18.4538C19.6868 23.103 20.869 22.6129 21.7407 21.7409C22.6124 20.8689 23.102 19.6864 23.102 18.4535V6.05349C23.1015 4.82085 22.6117 3.63883 21.7401 2.76723C20.8685 1.89562 19.6864 1.40575 18.4538 1.40527H6.05381ZM19.7913 6.06063C19.7913 6.41583 19.6502 6.75648 19.399 7.00765C19.1479 7.25881 18.8072 7.39992 18.452 7.39992C18.0968 7.39992 17.7562 7.25881 17.505 7.00765C17.2538 6.75648 17.1127 6.41583 17.1127 6.06063C17.1127 5.70543 17.2538 5.36478 17.505 5.11361C17.7562 4.86245 18.0968 4.72134 18.452 4.72134C18.8072 4.72134 19.1479 4.86245 19.399 5.11361C19.6502 5.36478 19.7913 5.70543 19.7913 6.06063ZM12.2556 8.5392C11.2705 8.5392 10.3258 8.93053 9.6292 9.62709C8.93263 10.3237 8.54131 11.2684 8.54131 12.2535C8.54131 13.2386 8.93263 14.1833 9.6292 14.8799C10.3258 15.5764 11.2705 15.9678 12.2556 15.9678C13.2407 15.9678 14.1854 15.5764 14.882 14.8799C15.5786 14.1833 15.9699 13.2386 15.9699 12.2535C15.9699 11.2684 15.5786 10.3237 14.882 9.62709C14.1854 8.93053 13.2407 8.5392 12.2556 8.5392ZM6.75381 12.2535C6.75381 10.7948 7.33327 9.39585 8.36472 8.3644C9.39617 7.33295 10.7951 6.75349 12.2538 6.75349C13.7125 6.75349 15.1114 7.33295 16.1429 8.3644C17.1743 9.39585 17.7538 10.7948 17.7538 12.2535C17.7538 13.7122 17.1743 15.1111 16.1429 16.1426C15.1114 17.174 13.7125 17.7535 12.2538 17.7535C10.7951 17.7535 9.39617 17.174 8.36472 16.1426C7.33327 15.1111 6.75381 13.7122 6.75381 12.2535Z" fill="white"/>
</svg>
