<svg width="25" height="25" viewBox="0 0 25 25" fill="none" xmlns="http://www.w3.org/2000/svg">
<path d="M12.5 2.125C6.77081 2.125 2.08331 6.80208 2.08331 12.5625C2.08331 17.7708 5.89581 22.0937 10.875 22.875V15.5833H8.22915V12.5625H10.875V10.2604C10.875 7.64583 12.4271 6.20833 14.8125 6.20833C15.9479 6.20833 17.1354 6.40625 17.1354 6.40625V8.97917H15.8229C14.5312 8.97917 14.125 9.78125 14.125 10.6042V12.5625H17.0208L16.5521 15.5833H14.125V22.875C16.5796 22.4873 18.8148 21.2349 20.427 19.3438C22.0392 17.4527 22.9222 15.0475 22.9166 12.5625C22.9166 6.80208 18.2291 2.125 12.5 2.125Z" fill="white"/>
</svg>
