<svg width="16" height="16" viewBox="0 0 16 16" fill="none" xmlns="http://www.w3.org/2000/svg">
<path d="M3.60934 15.9865L0.211879 15.9894L0.202789 5.29742L3.60025 5.29454L3.60934 15.9865ZM1.90025 3.7971C0.80107 3.79804 0.000987316 2.99932 5.28121e-05 1.90014C-0.000881692 0.800962 0.897766 0.000796736 1.89702 -5.28136e-05C2.99619 -0.000987318 3.79628 0.797734 3.79721 1.89691C3.79815 2.99609 2.99942 3.79617 1.90025 3.7971ZM16.0001 15.976L12.6026 15.9789L12.5977 10.1832C12.5962 8.4845 11.8963 7.98546 10.8971 7.98631C9.89782 7.98716 8.89925 8.78741 8.90052 10.2863L8.90536 15.982L5.50791 15.9849L5.49882 5.29292L8.69643 5.2902L8.6977 6.78908C8.99688 6.08935 10.195 4.98915 11.8938 4.98771C13.7924 4.9861 15.7918 6.08357 15.7946 9.3811L15.8002 15.9762L16.0001 15.976Z" fill="white"/>
</svg>
