<svg width="9" height="6" viewBox="0 0 9 6" fill="none" xmlns="http://www.w3.org/2000/svg">
<path fill-rule="evenodd" clip-rule="evenodd" d="M3.93979 0.260117C4.12055 0.0879109 4.36227 -0.00550553 4.61186 0.000387321C4.86145 0.00628017 5.09849 0.111 5.27092 0.291545L8.73969 3.92678C8.82507 4.01633 8.89197 4.12182 8.93658 4.23723C8.98119 4.35263 9.00263 4.4757 8.99968 4.59939C8.99674 4.72308 8.96945 4.84499 8.91939 4.95813C8.86933 5.07128 8.79747 5.17346 8.70792 5.25884C8.61837 5.34422 8.51288 5.41113 8.39748 5.45574C8.28207 5.50035 8.15901 5.52179 8.03531 5.51884C7.91162 5.51589 7.78972 5.48861 7.67657 5.43855C7.56342 5.38849 7.46124 5.31663 7.37586 5.22708L4.55819 2.27378L1.60426 5.09144C1.5153 5.17938 1.40971 5.24873 1.29366 5.29543C1.17761 5.34213 1.05342 5.36525 0.928335 5.36345C0.803252 5.36164 0.679782 5.33494 0.565128 5.2849C0.450475 5.23487 0.346935 5.1625 0.260549 5.07202C0.174162 4.98154 0.106661 4.87477 0.0619821 4.75792C0.0173034 4.64108 -0.00365768 4.51651 0.00032229 4.39147C0.00430226 4.26644 0.0331435 4.14345 0.0851629 4.02969C0.137182 3.91592 0.211338 3.81365 0.303304 3.72885L3.93979 0.260117Z" fill="white"/>
</svg>
