<svg width="30" height="30" viewBox="0 0 30 30" fill="none" xmlns="http://www.w3.org/2000/svg">
<g filter="url(#filter0_ii_119_312)">
<path d="M3.78271 2.90808C3.78271 2.65944 3.88149 2.42098 4.0573 2.24517C4.23312 2.06935 4.47157 1.97058 4.72021 1.97058H23.6165C23.8651 1.97058 24.1036 2.06935 24.2794 2.24517C24.4552 2.42098 24.554 2.65944 24.554 2.90808V26.1543C24.554 26.6516 24.3564 27.1285 24.0048 27.4802C23.6532 27.8318 23.1762 28.0293 22.679 28.0293H7.53271C6.53815 28.0293 5.58433 27.6342 4.88106 26.931C4.1778 26.2277 3.78271 25.2739 3.78271 24.2793V2.90808Z" fill="white"/>
<path d="M3.78271 2.90808C3.78271 2.65944 3.88149 2.42098 4.0573 2.24517C4.23312 2.06935 4.47157 1.97058 4.72021 1.97058H23.6165C23.8651 1.97058 24.1036 2.06935 24.2794 2.24517C24.4552 2.42098 24.554 2.65944 24.554 2.90808V26.1543C24.554 26.6516 24.3564 27.1285 24.0048 27.4802C23.6532 27.8318 23.1762 28.0293 22.679 28.0293H7.53271C6.53815 28.0293 5.58433 27.6342 4.88106 26.931C4.1778 26.2277 3.78271 25.2739 3.78271 24.2793V2.90808Z" fill="white"/>
</g>
<g filter="url(#filter1_i_119_312)">
<path d="M12.1321 23.9578C11.8834 23.9578 11.645 24.0565 11.4691 24.2324C11.2933 24.4082 11.1946 24.6466 11.1946 24.8953V24.9796C11.1946 26.1656 9.6458 27.749 8.0708 27.9843V28.0293H23.938C24.8472 28.0291 25.7191 27.6678 26.362 27.0249C27.0049 26.382 27.3662 25.5101 27.3664 24.6009C27.3664 24.4305 27.2988 24.267 27.1784 24.1465C27.058 24.0259 26.8946 23.958 26.7242 23.9578H12.1311H12.1321Z" fill="white"/>
</g>
<path d="M12.1321 23.9578C11.8834 23.9578 11.645 24.0565 11.4691 24.2324C11.2933 24.4082 11.1946 24.6466 11.1946 24.8953V24.9796C11.1946 26.1656 9.6458 27.749 8.0708 27.9843V28.0293H23.938C24.8472 28.0291 25.7191 27.6678 26.362 27.0249C27.0049 26.382 27.3662 25.5101 27.3664 24.6009C27.3664 24.4305 27.2988 24.267 27.1784 24.1465C27.058 24.0259 26.8946 23.958 26.7242 23.9578H12.1311H12.1321Z" fill="white"/>
<path d="M12.1321 23.9578C11.8834 23.9578 11.645 24.0565 11.4691 24.2324C11.2933 24.4082 11.1946 24.6466 11.1946 24.8953V24.9796C11.1946 26.1656 9.6458 27.749 8.0708 27.9843V28.0293H23.938C24.8472 28.0291 25.7191 27.6678 26.362 27.0249C27.0049 26.382 27.3662 25.5101 27.3664 24.6009C27.3664 24.4305 27.2988 24.267 27.1784 24.1465C27.058 24.0259 26.8946 23.958 26.7242 23.9578H12.1311H12.1321Z" fill="#86CBAB"/>
<path d="M20.2216 9.40405H8.13723C7.87213 9.40405 7.65723 9.61875 7.65723 9.88358C7.65723 10.1484 7.87213 10.3631 8.13723 10.3631H20.2216C20.4867 10.3631 20.7016 10.1484 20.7016 9.88358C20.7016 9.61875 20.4867 9.40405 20.2216 9.40405Z" fill="#86CBAB"/>
<path d="M20.2216 12.2166H8.13723C7.87213 12.2166 7.65723 12.4312 7.65723 12.6961C7.65723 12.9609 7.87213 13.1756 8.13723 13.1756H20.2216C20.4867 13.1756 20.7016 12.9609 20.7016 12.6961C20.7016 12.4312 20.4867 12.2166 20.2216 12.2166Z" fill="#86CBAB"/>
<path d="M20.2216 15.0291H8.13723C7.87213 15.0291 7.65723 15.2437 7.65723 15.5086C7.65723 15.7734 7.87213 15.9881 8.13723 15.9881H20.2216C20.4867 15.9881 20.7016 15.7734 20.7016 15.5086C20.7016 15.2437 20.4867 15.0291 20.2216 15.0291Z" fill="#86CBAB"/>
<path d="M15.5932 17.8416H8.13723C7.87213 17.8416 7.65723 18.0562 7.65723 18.3211C7.65723 18.5859 7.87213 18.8006 8.13723 18.8006H15.5932C15.8583 18.8006 16.0732 18.5859 16.0732 18.3211C16.0732 18.0562 15.8583 17.8416 15.5932 17.8416Z" fill="#86CBAB"/>
<defs>
<filter id="filter0_ii_119_312" x="3.63271" y="1.87058" width="21.0215" height="26.1587" filterUnits="userSpaceOnUse" color-interpolation-filters="sRGB">
<feFlood flood-opacity="0" result="BackgroundImageFix"/>
<feBlend mode="normal" in="SourceGraphic" in2="BackgroundImageFix" result="shape"/>
<feColorMatrix in="SourceAlpha" type="matrix" values="0 0 0 0 0 0 0 0 0 0 0 0 0 0 0 0 0 0 127 0" result="hardAlpha"/>
<feOffset dx="-0.15"/>
<feGaussianBlur stdDeviation="0.15"/>
<feComposite in2="hardAlpha" operator="arithmetic" k2="-1" k3="1"/>
<feColorMatrix type="matrix" values="0 0 0 0 1 0 0 0 0 1 0 0 0 0 1 0 0 0 1 0"/>
<feBlend mode="normal" in2="shape" result="effect1_innerShadow_119_312"/>
<feColorMatrix in="SourceAlpha" type="matrix" values="0 0 0 0 0 0 0 0 0 0 0 0 0 0 0 0 0 0 127 0" result="hardAlpha"/>
<feOffset dx="0.1" dy="-0.1"/>
<feGaussianBlur stdDeviation="0.1"/>
<feComposite in2="hardAlpha" operator="arithmetic" k2="-1" k3="1"/>
<feColorMatrix type="matrix" values="0 0 0 0 0.741176 0 0 0 0 0.701961 0 0 0 0 0.784314 0 0 0 1 0"/>
<feBlend mode="normal" in2="effect1_innerShadow_119_312" result="effect2_innerShadow_119_312"/>
</filter>
<filter id="filter1_i_119_312" x="8.0708" y="23.8578" width="19.4954" height="4.17153" filterUnits="userSpaceOnUse" color-interpolation-filters="sRGB">
<feFlood flood-opacity="0" result="BackgroundImageFix"/>
<feBlend mode="normal" in="SourceGraphic" in2="BackgroundImageFix" result="shape"/>
<feColorMatrix in="SourceAlpha" type="matrix" values="0 0 0 0 0 0 0 0 0 0 0 0 0 0 0 0 0 0 127 0" result="hardAlpha"/>
<feOffset dx="0.2" dy="-0.1"/>
<feGaussianBlur stdDeviation="0.1"/>
<feComposite in2="hardAlpha" operator="arithmetic" k2="-1" k3="1"/>
<feColorMatrix type="matrix" values="0 0 0 0 0.776471 0 0 0 0 0.74902 0 0 0 0 0.803922 0 0 0 1 0"/>
<feBlend mode="normal" in2="shape" result="effect1_innerShadow_119_312"/>
</filter>
</defs>
</svg>
