<svg width="9" height="6" viewBox="0 0 9 6" fill="none" xmlns="http://www.w3.org/2000/svg">
<path fill-rule="evenodd" clip-rule="evenodd" d="M5.15995 5.17195C4.98334 5.34834 4.74395 5.44741 4.49434 5.44741C4.24474 5.44741 4.00534 5.34834 3.82874 5.17195L0.275909 1.62038C0.188459 1.53289 0.119098 1.42903 0.0717867 1.31474C0.0244754 1.20044 0.000139507 1.07794 0.000168241 0.954242C0.000196974 0.83054 0.0245913 0.708055 0.0719572 0.59378C0.119323 0.479506 0.188732 0.37568 0.276223 0.28823C0.363714 0.20078 0.467572 0.131419 0.581869 0.0841076C0.696166 0.0367959 0.818662 0.0124595 0.942365 0.0124887C1.06607 0.0125179 1.18855 0.0369123 1.30283 0.0842777C1.4171 0.131643 1.52093 0.201053 1.60838 0.288544L4.49434 3.17388L7.38031 0.287915C7.46715 0.197915 7.57105 0.126111 7.68594 0.0766934C7.80083 0.0272761 7.92442 0.00123658 8.04948 9.11069e-05C8.17454 -0.00105437 8.29858 0.0227186 8.41436 0.0700232C8.53014 0.117328 8.63533 0.187216 8.72381 0.275611C8.81229 0.364006 8.88228 0.469137 8.92969 0.58487C8.9771 0.700602 9.001 0.824619 8.99997 0.949683C8.99894 1.07475 8.97302 1.19835 8.92371 1.31329C8.8744 1.42823 8.80269 1.5322 8.71277 1.61913L5.15995 5.17195Z" fill="white"/>
</svg>
