<svg width="22" height="22" viewBox="0 0 22 22" fill="none" xmlns="http://www.w3.org/2000/svg">
<g clip-path="url(#clip0_140_47)">
<path d="M20.1668 11.6111C20.0864 11.6116 20.0067 11.5962 19.9322 11.5657C19.8578 11.5353 19.7901 11.4905 19.733 11.4339L11.0002 2.695L2.2674 11.4339C2.1505 11.534 2.00012 11.5863 1.84631 11.5804C1.69251 11.5744 1.54662 11.5107 1.43778 11.4018C1.32894 11.293 1.26519 11.1471 1.25924 10.9933C1.2533 10.8395 1.30562 10.6891 1.40574 10.5722L10.5724 1.40555C10.6869 1.29173 10.8418 1.22784 11.0032 1.22784C11.1647 1.22784 11.3196 1.29173 11.4341 1.40555L20.6007 10.5722C20.6848 10.658 20.7418 10.7667 20.7644 10.8847C20.7871 11.0026 20.7745 11.1247 20.7282 11.2355C20.6819 11.3464 20.604 11.4411 20.5041 11.5079C20.4043 11.5747 20.287 11.6106 20.1668 11.6111Z" fill="#737373"/>
<path d="M10.9998 4.76056L3.6665 12.1183V19.5556C3.6665 19.8797 3.79527 20.1906 4.02448 20.4198C4.2537 20.649 4.56457 20.7778 4.88873 20.7778H9.1665V14.6667H12.8332V20.7778H17.1109C17.4351 20.7778 17.746 20.649 17.9752 20.4198C18.2044 20.1906 18.3332 19.8797 18.3332 19.5556V12.0756L10.9998 4.76056Z" fill="#737373"/>
</g>
<defs>
<clipPath id="clip0_140_47">
<rect width="22" height="22" fill="white"/>
</clipPath>
</defs>
</svg>
