<svg width="30" height="27" viewBox="0 0 30 27" fill="none" xmlns="http://www.w3.org/2000/svg">
<path d="M29.9961 12.786C29.8133 5.59616 22.9155 -0.156042 14.6676 0.00328336C6.41968 0.162609 -0.179069 6.17553 0.00370464 13.3653C0.169862 19.9015 5.74306 25.1888 12.8912 26.0317L12.6586 16.881L8.90951 16.9534L8.81397 13.1951L12.563 13.1227L12.4882 10.1814C12.4052 6.91334 14.6089 5.07244 17.9831 5.00726C19.6701 4.97467 21.3655 5.26889 21.3655 5.26889L21.4486 8.53698L19.5741 8.57319C17.6995 8.6094 17.1621 9.60069 17.187 10.5811L17.2493 13.0322L21.3733 12.9525L20.719 16.7253L17.1574 16.7941L17.3942 26.1082C24.8674 24.9829 30.1623 19.3221 29.9961 12.786Z" fill="#1877F2"/>
</svg>
