<svg width="21" height="21" viewBox="0 0 21 21" fill="none" xmlns="http://www.w3.org/2000/svg">
<path fill-rule="evenodd" clip-rule="evenodd" d="M10.4999 0C4.70081 0 0 4.70081 0 10.4999C0 12.4844 0.551246 14.3429 1.50989 15.9263L0.573296 19.1099C0.51952 19.2926 0.515981 19.4865 0.563052 19.6712C0.610123 19.8558 0.706065 20.0243 0.840791 20.159C0.975517 20.2938 1.14405 20.3897 1.32868 20.4368C1.5133 20.4839 1.7072 20.4803 1.88999 20.4265L5.07356 19.4899C6.71016 20.4802 8.58706 21.0024 10.4999 20.9998C16.299 20.9998 20.9998 16.299 20.9998 10.4999C20.9998 4.70081 16.299 0 10.4999 0ZM8.12484 12.876C10.249 14.9991 12.2765 15.2795 12.9926 15.3057C14.0814 15.3456 15.1419 14.514 15.5546 13.5491C15.6067 13.4291 15.6256 13.2972 15.6093 13.1674C15.5931 13.0375 15.5423 12.9144 15.4622 12.8109C14.8868 12.076 14.1087 11.5478 13.3485 11.0228C13.1898 10.9131 12.9948 10.869 12.8043 10.9C12.6138 10.9309 12.4427 11.0344 12.3269 11.1887L11.6969 12.1495C11.6638 12.2011 11.6122 12.2381 11.5526 12.253C11.4931 12.2678 11.4301 12.2593 11.3767 12.2293C10.9493 11.9846 10.3267 11.5688 9.87937 11.1215C9.43208 10.6742 9.04148 10.0799 8.82203 9.67987C8.79482 9.62905 8.78696 9.57008 8.79989 9.5139C8.81283 9.45772 8.84569 9.40814 8.89238 9.37433L9.86257 8.65403C10.001 8.53364 10.0904 8.36654 10.1136 8.18454C10.1369 8.00254 10.0923 7.81835 9.98857 7.66704C9.51818 6.97825 8.97008 6.10255 8.17524 5.52191C8.07266 5.44757 7.95249 5.40122 7.82657 5.38741C7.70064 5.3736 7.57329 5.39282 7.45704 5.44316C6.49105 5.85685 5.65526 6.91735 5.69516 8.00829C5.72141 8.72438 6.00175 10.7519 8.12484 12.876Z" fill="white"/>
</svg>
