<svg width="19" height="19" viewBox="0 0 19 19" fill="none" xmlns="http://www.w3.org/2000/svg">
<path fill-rule="evenodd" clip-rule="evenodd" d="M13.7222 0C14.0022 0 14.2707 0.11121 14.4686 0.309165C14.6666 0.50712 14.7778 0.775605 14.7778 1.05556V2.11111H16.8889C17.4488 2.11111 17.9858 2.33353 18.3817 2.72944C18.7776 3.12535 19 3.66232 19 4.22222V16.8889C19 17.4488 18.7776 17.9858 18.3817 18.3817C17.9858 18.7776 17.4488 19 16.8889 19H2.11111C1.55121 19 1.01424 18.7776 0.61833 18.3817C0.22242 17.9858 0 17.4488 0 16.8889V4.22222C0 3.66232 0.22242 3.12535 0.61833 2.72944C1.01424 2.33353 1.55121 2.11111 2.11111 2.11111H4.22222V1.05556C4.22222 0.775605 4.33343 0.50712 4.53139 0.309165C4.72934 0.11121 4.99783 0 5.27778 0C5.55773 0 5.82621 0.11121 6.02417 0.309165C6.22212 0.50712 6.33333 0.775605 6.33333 1.05556V2.11111H12.6667V1.05556C12.6667 0.775605 12.7779 0.50712 12.9758 0.309165C13.1738 0.11121 13.4423 0 13.7222 0ZM5.28833 13.7222H5.27778C5.00874 13.7225 4.74997 13.8255 4.55433 14.0102C4.3587 14.1949 4.24097 14.4473 4.22521 14.7159C4.20944 14.9845 4.29682 15.249 4.4695 15.4553C4.64218 15.6616 4.88712 15.7942 5.15428 15.8259L5.28833 15.8333C5.56828 15.8333 5.83677 15.7221 6.03472 15.5242C6.23268 15.3262 6.34389 15.0577 6.34389 14.7778C6.34389 14.4978 6.23268 14.2293 6.03472 14.0314C5.83677 13.8334 5.56828 13.7222 5.28833 13.7222ZM9.51056 13.7222H9.5C9.23096 13.7225 8.97219 13.8255 8.77655 14.0102C8.58092 14.1949 8.4632 14.4473 8.44743 14.7159C8.43166 14.9845 8.51904 15.249 8.69172 15.4553C8.8644 15.6616 9.10934 15.7942 9.3765 15.8259L9.51056 15.8333C9.79051 15.8333 10.059 15.7221 10.2569 15.5242C10.4549 15.3262 10.5661 15.0577 10.5661 14.7778C10.5661 14.4978 10.4549 14.2293 10.2569 14.0314C10.059 13.8334 9.79051 13.7222 9.51056 13.7222ZM13.7328 13.7222H13.7222C13.4532 13.7225 13.1944 13.8255 12.9988 14.0102C12.8031 14.1949 12.6854 14.4473 12.6697 14.7159C12.6539 14.9845 12.7413 15.249 12.9139 15.4553C13.0866 15.6616 13.3316 15.7942 13.5987 15.8259L13.7328 15.8333C14.0127 15.8333 14.2812 15.7221 14.4792 15.5242C14.6771 15.3262 14.7883 15.0577 14.7883 14.7778C14.7883 14.4978 14.6771 14.2293 14.4792 14.0314C14.2812 13.8334 14.0127 13.7222 13.7328 13.7222ZM5.28833 9.5H5.27778C5.00874 9.5003 4.74997 9.60332 4.55433 9.78801C4.3587 9.9727 4.24097 10.2251 4.22521 10.4937C4.20944 10.7623 4.29682 11.0267 4.4695 11.233C4.64218 11.4394 4.88712 11.5719 5.15428 11.6037L5.28833 11.6111C5.56828 11.6111 5.83677 11.4999 6.03472 11.3019C6.23268 11.104 6.34389 10.8355 6.34389 10.5556C6.34389 10.2756 6.23268 10.0071 6.03472 9.80916C5.83677 9.61121 5.56828 9.5 5.28833 9.5ZM9.51056 9.5H9.5C9.23096 9.5003 8.97219 9.60332 8.77655 9.78801C8.58092 9.9727 8.4632 10.2251 8.44743 10.4937C8.43166 10.7623 8.51904 11.0267 8.69172 11.233C8.8644 11.4394 9.10934 11.5719 9.3765 11.6037L9.51056 11.6111C9.79051 11.6111 10.059 11.4999 10.2569 11.3019C10.4549 11.104 10.5661 10.8355 10.5661 10.5556C10.5661 10.2756 10.4549 10.0071 10.2569 9.80916C10.059 9.61121 9.79051 9.5 9.51056 9.5ZM13.7328 9.5H13.7222C13.4532 9.5003 13.1944 9.60332 12.9988 9.78801C12.8031 9.9727 12.6854 10.2251 12.6697 10.4937C12.6539 10.7623 12.7413 11.0267 12.9139 11.233C13.0866 11.4394 13.3316 11.5719 13.5987 11.6037L13.7328 11.6111C14.0127 11.6111 14.2812 11.4999 14.4792 11.3019C14.6771 11.104 14.7883 10.8355 14.7883 10.5556C14.7883 10.2756 14.6771 10.0071 14.4792 9.80916C14.2812 9.61121 14.0127 9.5 13.7328 9.5ZM16.8889 4.22222H2.11111V6.33333H16.8889V4.22222Z" fill="white"/>
</svg>
