<svg width="40" height="40" viewBox="0 0 40 40" fill="none" xmlns="http://www.w3.org/2000/svg">
<g clip-path="url(#clip0_71_666)">
<path d="M11.6 26.8889V13.1111H4C1.8 13.1111 0 15.1111 0 17.5556V30.8889C0 33.3333 1.8 35.3333 4 35.3333H6V42L12 35.3333H22C24.2 35.3333 26 33.3333 26 30.8889V26.8444C25.8685 26.8758 25.7344 26.8914 25.6 26.8911H11.6V26.8889ZM36 2H18C15.8 2 14 4 14 6.44444V24.2222H28L34 30.8889V24.2222H36C38.2 24.2222 40 22.2244 40 19.7778V6.44444C40 4 38.2 2 36 2Z" fill="white"/>
</g>
<defs>
<clipPath id="clip0_71_666">
<rect width="40" height="40" fill="white"/>
</clipPath>
</defs>
</svg>
