<svg width="25" height="25" viewBox="0 0 25 25" fill="none" xmlns="http://www.w3.org/2000/svg">
<path d="M8.59375 3.125C7.97215 3.125 7.37601 3.37193 6.93647 3.81147C6.49693 4.25101 6.25 4.84715 6.25 5.46875V21.0938C6.25 21.301 6.33231 21.4997 6.47882 21.6462C6.62534 21.7927 6.82405 21.875 7.03125 21.875H9.375V17.9688C9.375 17.7615 9.45731 17.5628 9.60382 17.4163C9.75034 17.2698 9.94905 17.1875 10.1562 17.1875H16.4062C16.6135 17.1875 16.8122 17.2698 16.9587 17.4163C17.1052 17.5628 17.1875 17.7615 17.1875 17.9688V21.875H19.5312C19.7385 21.875 19.9372 21.7927 20.0837 21.6462C20.2302 21.4997 20.3125 21.301 20.3125 21.0938V13.2812C20.3125 12.6596 20.0656 12.0635 19.626 11.624C19.1865 11.1844 18.5904 10.9375 17.9688 10.9375H17.1875V5.46875C17.1875 4.84715 16.9406 4.25101 16.501 3.81147C16.0615 3.37193 15.4654 3.125 14.8438 3.125H8.59375ZM10.9375 7.03125C10.9375 7.23845 10.8552 7.43716 10.7087 7.58368C10.5622 7.73019 10.3635 7.8125 10.1562 7.8125C9.94905 7.8125 9.75034 7.73019 9.60382 7.58368C9.45731 7.43716 9.375 7.23845 9.375 7.03125C9.375 6.82405 9.45731 6.62534 9.60382 6.47882C9.75034 6.33231 9.94905 6.25 10.1562 6.25C10.3635 6.25 10.5622 6.33231 10.7087 6.47882C10.8552 6.62534 10.9375 6.82405 10.9375 7.03125ZM10.9375 10.9375C10.9375 11.1447 10.8552 11.3434 10.7087 11.4899C10.5622 11.6364 10.3635 11.7188 10.1562 11.7188C9.94905 11.7188 9.75034 11.6364 9.60382 11.4899C9.45731 11.3434 9.375 11.1447 9.375 10.9375C9.375 10.7303 9.45731 10.5316 9.60382 10.3851C9.75034 10.2386 9.94905 10.1562 10.1562 10.1562C10.3635 10.1562 10.5622 10.2386 10.7087 10.3851C10.8552 10.5316 10.9375 10.7303 10.9375 10.9375ZM10.9375 14.8438C10.9375 15.051 10.8552 15.2497 10.7087 15.3962C10.5622 15.5427 10.3635 15.625 10.1562 15.625C9.94905 15.625 9.75034 15.5427 9.60382 15.3962C9.45731 15.2497 9.375 15.051 9.375 14.8438C9.375 14.6365 9.45731 14.4378 9.60382 14.2913C9.75034 14.1448 9.94905 14.0625 10.1562 14.0625C10.3635 14.0625 10.5622 14.1448 10.7087 14.2913C10.8552 14.4378 10.9375 14.6365 10.9375 14.8438ZM14.0625 7.03125C14.0625 7.23845 13.9802 7.43716 13.8337 7.58368C13.6872 7.73019 13.4885 7.8125 13.2812 7.8125C13.074 7.8125 12.8753 7.73019 12.7288 7.58368C12.5823 7.43716 12.5 7.23845 12.5 7.03125C12.5 6.82405 12.5823 6.62534 12.7288 6.47882C12.8753 6.33231 13.074 6.25 13.2812 6.25C13.4885 6.25 13.6872 6.33231 13.8337 6.47882C13.9802 6.62534 14.0625 6.82405 14.0625 7.03125ZM14.0625 10.9375C14.0625 11.1447 13.9802 11.3434 13.8337 11.4899C13.6872 11.6364 13.4885 11.7188 13.2812 11.7188C13.074 11.7188 12.8753 11.6364 12.7288 11.4899C12.5823 11.3434 12.5 11.1447 12.5 10.9375C12.5 10.7303 12.5823 10.5316 12.7288 10.3851C12.8753 10.2386 13.074 10.1562 13.2812 10.1562C13.4885 10.1562 13.6872 10.2386 13.8337 10.3851C13.9802 10.5316 14.0625 10.7303 14.0625 10.9375ZM14.0625 14.8438C14.0625 15.051 13.9802 15.2497 13.8337 15.3962C13.6872 15.5427 13.4885 15.625 13.2812 15.625C13.074 15.625 12.8753 15.5427 12.7288 15.3962C12.5823 15.2497 12.5 15.051 12.5 14.8438C12.5 14.6365 12.5823 14.4378 12.7288 14.2913C12.8753 14.1448 13.074 14.0625 13.2812 14.0625C13.4885 14.0625 13.6872 14.1448 13.8337 14.2913C13.9802 14.4378 14.0625 14.6365 14.0625 14.8438ZM17.1875 14.8438C17.1875 15.051 17.1052 15.2497 16.9587 15.3962C16.8122 15.5427 16.6135 15.625 16.4062 15.625C16.199 15.625 16.0003 15.5427 15.8538 15.3962C15.7073 15.2497 15.625 15.051 15.625 14.8438C15.625 14.6365 15.7073 14.4378 15.8538 14.2913C16.0003 14.1448 16.199 14.0625 16.4062 14.0625C16.6135 14.0625 16.8122 14.1448 16.9587 14.2913C17.1052 14.4378 17.1875 14.6365 17.1875 14.8438ZM15.625 21.875V18.75H14.0672V21.875H15.625ZM12.5047 21.875V18.75H10.9375V21.875H12.5047Z" fill="white"/>
</svg>
