<svg width="15" height="11" viewBox="0 0 15 11" fill="none" xmlns="http://www.w3.org/2000/svg">
<path d="M0.80016 7.53907C4.24534 5.14662 6.54611 3.56248 7.70247 2.78665C11.0041 0.571502 11.7043 0.157128 12.2051 0.0317725C12.3153 0.00430231 12.5701 -0.0295916 12.7653 0.0463559C12.9301 0.110485 13.0071 0.231124 13.0528 0.317739C13.0985 0.404353 13.1843 0.605962 13.2163 0.771665C13.5819 2.66297 14.0863 7.34204 14.278 9.51118C14.3591 10.429 14.0799 10.8084 13.7312 10.9205C12.9733 11.1644 12.2265 10.7922 11.3418 10.538C9.95734 10.1401 9.16331 9.87663 7.8184 9.48699C6.26411 9.03669 6.99228 8.41959 7.5356 7.56212C7.67779 7.33771 10.2669 3.82364 10.2575 3.56192C10.2563 3.52919 10.2287 3.41259 10.1318 3.37025C10.035 3.32791 9.92587 3.37561 9.84761 3.41156C9.73668 3.46251 8.18861 4.98584 5.20339 7.98154C4.76766 8.42591 4.33186 8.69462 3.896 8.78767C3.4155 8.89026 2.42692 8.87844 1.68426 8.84443C0.773355 8.80272 0.0688053 8.83274 0.00284849 8.41596C-0.0315059 8.19887 0.234265 7.90658 0.80016 7.53907Z" fill="white"/>
</svg>
